<?xml version="1.0" standalone="no"?>
<!DOCTYPE svg PUBLIC "-//W3C//DTD SVG 20010904//EN"
 "http://www.w3.org/TR/2001/REC-SVG-20010904/DTD/svg10.dtd">
<svg version="1.0" xmlns="http://www.w3.org/2000/svg"
 width="500.000000pt" height="500.000000pt" viewBox="0 0 500.000000 500.000000"
 preserveAspectRatio="xMidYMid meet">
<metadata>
Created by potrace 1.11, written by Peter Selinger 2001-2013
</metadata>
<g transform="translate(0.000000,500.000000) scale(0.100000,-0.100000)"
fill="#000000" stroke="none">
<path d="M0 2500 l0 -2500 2500 0 2500 0 0 2500 0 2500 -2500 0 -2500 0 0
-2500z m3469 2117 c18 -34 36 -42 166 -76 129 -34 158 -51 153 -90 -2 -21 -14
-31 -63 -51 -58 -24 -69 -25 -395 -31 -278 -5 -344 -9 -389 -23 -105 -34 -177
-98 -208 -186 l-18 -50 -113 0 -112 0 21 42 c33 64 69 166 69 194 0 13 -7 35
-16 49 -8 13 -14 38 -12 57 5 59 38 67 319 79 134 5 268 14 297 20 54 11 112
50 112 75 0 11 19 14 88 14 82 0 90 -2 101 -23z m-2439 -102 c0 -131 37 -175
145 -175 l45 0 0 -106 c0 -106 0 -106 -23 -100 -13 3 -48 2 -78 -3 -48 -8 -59
-15 -100 -60 -56 -62 -81 -65 -129 -16 -56 58 -88 68 -198 60 -54 -3 -109 -9
-124 -11 l-28 -6 0 120 0 120 108 4 c95 3 111 6 137 26 44 35 63 70 81 150
l16 72 74 0 74 0 0 -75z m360 24 c69 -1 256 2 415 6 398 10 485 -3 485 -76 0
-15 -20 -69 -45 -121 -30 -63 -48 -116 -55 -163 -11 -79 -13 -185 -4 -209 3
-9 33 -32 65 -52 91 -55 92 -101 7 -241 -43 -71 -59 -89 -80 -91 -23 -3 -32 5
-62 52 -33 51 -77 86 -108 86 -8 0 -31 -9 -52 -19 l-38 -20 -38 83 c-57 125
-57 123 -15 130 82 16 144 111 165 252 14 94 1 145 -43 178 -25 19 -45 21
-177 24 -172 4 -204 -6 -260 -80 -71 -93 -81 -93 -149 -3 l-42 55 -64 -6 -65
-7 0 117 c0 107 2 117 18 112 9 -3 73 -6 142 -7z m2831 -20 c21 -7 48 -23 60
-35 22 -23 22 -25 7 -88 -11 -45 -13 -77 -7 -109 7 -41 43 -188 55 -229 5 -16
-5 -18 -109 -18 l-115 0 5 38 c7 55 -13 172 -35 202 -10 14 -61 46 -113 72
-85 42 -139 84 -139 108 0 17 52 44 109 56 73 16 233 17 282 3z m-1107 -243
c-7 -30 8 -60 55 -109 l36 -38 -30 -25 c-96 -81 -308 -203 -445 -257 -124 -49
-111 -54 -174 72 -31 61 -56 113 -56 116 0 3 17 5 38 5 66 0 175 29 249 65 74
37 141 100 171 163 16 32 16 32 89 32 73 0 73 0 67 -24z m826 -90 c124 -35
159 -107 87 -184 -52 -56 -247 -149 -283 -135 -12 4 -15 19 -12 65 3 56 1 62
-25 82 -25 18 -47 22 -180 27 -84 4 -166 10 -184 14 -39 9 -86 56 -78 77 10
25 91 51 209 68 93 13 401 4 466 -14z m-2462 -50 c33 -17 77 -101 93 -177 16
-72 -1 -185 -50 -341 -21 -68 -44 -152 -51 -188 -48 -263 -133 -501 -219 -609
l-19 -24 -106 67 c-58 38 -106 69 -106 70 0 1 24 27 54 59 128 135 222 417
311 937 25 145 46 220 60 220 3 0 18 -6 33 -14z m1742 -244 c112 -45 117 -46
205 -42 50 2 130 4 180 4 l90 1 6 -39 c4 -24 15 -46 30 -57 63 -48 218 -73
460 -72 l176 0 -51 -118 -51 -118 -47 -1 c-66 0 -282 42 -498 96 -174 45 -193
48 -320 48 -152 1 -206 -9 -405 -80 -66 -23 -156 -49 -200 -58 -85 -17 -265
-39 -271 -33 -2 2 -15 57 -28 121 l-24 118 28 -5 c169 -34 412 3 482 74 34 34
29 51 -23 82 l-39 23 57 67 57 66 35 -16 c20 -8 88 -36 151 -61z m-2208 16
c60 -71 158 -170 191 -194 l27 -19 -23 -80 -23 -80 -41 3 c-57 5 -99 -34 -114
-103 -5 -27 -13 -179 -16 -337 l-6 -288 -119 0 -120 0 6 28 c15 71 45 276 51
349 14 152 -8 166 -123 79 -62 -47 -137 -85 -146 -74 -2 1 -31 46 -64 98 l-61
95 52 16 c68 20 129 59 195 123 90 86 182 222 207 306 27 88 48 130 65 130 10
0 38 -23 62 -52z m820 -472 c33 -38 46 -46 75 -46 49 0 69 13 149 98 39 41 77
73 85 70 18 -6 30 -56 23 -98 -3 -19 -15 -68 -25 -109 -36 -140 -18 -227 57
-289 39 -32 139 -72 181 -72 13 0 23 -2 23 -4 0 -2 -27 -52 -61 -110 -54 -94
-64 -106 -83 -100 -45 14 -99 47 -182 110 -129 98 -151 101 -248 35 -103 -71
-224 -119 -346 -136 l-45 -7 -33 99 c-17 55 -32 104 -32 109 0 6 34 10 83 10
113 1 188 24 244 78 37 35 46 50 50 87 9 76 -19 149 -83 220 -66 75 -153 211
-137 216 6 2 46 21 89 42 l79 38 48 -98 c27 -54 66 -118 89 -143z m2150 -7
c212 -25 254 -56 211 -155 -21 -51 -21 -179 1 -260 23 -87 21 -116 -10 -145
-23 -21 -32 -23 -92 -20 -37 3 -121 4 -187 4 -66 0 -371 -2 -678 -4 l-558 -4
-21 22 c-27 28 -21 85 18 173 36 83 36 140 -1 248 -23 68 -26 87 -17 107 11
24 16 25 109 27 172 5 223 0 272 -24 66 -33 61 -52 -24 -110 -131 -90 -156
-141 -94 -199 36 -33 95 -53 211 -70 96 -14 528 -6 648 11 207 31 290 181 121
219 -25 6 -138 15 -251 21 -218 11 -375 30 -453 56 -40 13 -48 20 -45 37 2 17
18 27 73 46 59 20 98 25 255 31 207 8 382 4 512 -11z m-3161 -788 c10 -13 19
-34 19 -47 l0 -24 -175 0 c-170 0 -175 1 -175 21 0 30 18 59 43 69 12 5 78 9
145 7 117 -2 125 -3 143 -26z m410 0 c32 -40 21 -161 -16 -161 -8 0 -15 -4
-15 -10 0 -5 7 -10 15 -10 37 0 48 -121 16 -161 -18 -23 -25 -24 -175 -27
l-156 -3 0 125 0 126 125 0 125 0 0 25 0 25 -125 0 -125 0 0 51 0 50 156 -3
c150 -3 157 -4 175 -27z m429 -21 l0 -50 -65 0 -65 0 0 -150 0 -150 -50 0 -50
0 0 150 0 150 -60 0 -60 0 0 50 0 50 175 0 175 0 0 -50z m391 21 c17 -21 19
-41 19 -197 l0 -174 -50 0 -50 0 0 75 0 75 -75 0 -75 0 0 -75 0 -75 -50 0 -50
0 0 125 0 125 125 0 125 0 0 25 0 25 -125 0 c-120 0 -125 1 -125 21 0 30 18
59 43 69 12 5 78 9 145 7 117 -2 125 -3 143 -26z m410 0 c10 -13 19 -34 19
-47 l0 -24 -175 0 c-170 0 -175 1 -175 21 0 30 18 59 43 69 12 5 78 9 145 7
117 -2 125 -3 143 -26z m410 0 c10 -13 19 -34 19 -47 l0 -24 -176 0 -176 0 7
27 c16 64 40 73 188 70 111 -2 120 -3 138 -26z m570 0 c13 -16 19 -39 19 -72
l0 -49 -50 0 c-47 0 -50 2 -50 25 l0 25 -125 0 c-120 0 -125 1 -125 21 0 30
18 59 43 69 12 5 78 9 145 7 117 -2 125 -3 143 -26z m410 0 c17 -20 19 -40 19
-171 0 -202 6 -195 -175 -195 -175 0 -175 0 -175 146 l0 99 50 0 50 0 0 -75 0
-75 75 0 75 0 0 100 0 100 -125 0 c-120 0 -125 1 -125 21 0 30 18 59 43 69 12
5 78 9 145 7 117 -2 125 -3 143 -26z m460 0 c17 -21 19 -41 19 -197 l0 -174
-50 0 -50 0 0 150 0 150 -25 0 -25 0 0 -125 0 -125 -50 0 -50 0 0 125 0 125
-75 0 c-69 0 -75 2 -75 21 0 30 18 59 43 69 12 5 89 8 170 7 143 -2 150 -3
168 -26z m-3721 -196 l0 -75 75 0 c73 0 75 1 75 25 0 23 -3 25 -50 25 l-50 0
0 51 0 51 81 -4 c106 -4 119 -18 119 -123 0 -57 -4 -78 -19 -96 -19 -23 -24
-24 -156 -24 -175 0 -175 0 -175 146 l0 99 50 0 50 0 0 -75z m1640 0 l0 -75
75 0 c73 0 75 1 75 25 0 23 -3 25 -50 25 l-50 0 0 51 0 51 81 -4 c106 -4 119
-18 119 -123 0 -57 -4 -78 -19 -96 -19 -23 -24 -24 -156 -24 -175 0 -175 0
-175 146 l0 99 50 0 50 0 0 -75z m641 46 c27 -33 27 -159 0 -192 -19 -23 -24
-24 -156 -24 -132 0 -137 1 -156 24 -10 13 -19 34 -19 47 l0 24 125 0 125 0 0
24 c0 24 -2 24 -106 28 -97 3 -107 5 -125 27 -10 13 -19 34 -19 48 l0 24 156
-3 c150 -3 157 -4 175 -27z m339 -46 l0 -75 75 0 c73 0 75 1 75 25 0 23 3 25
50 25 l50 0 0 -49 c0 -33 -6 -56 -19 -72 -19 -23 -24 -24 -156 -24 -175 0
-175 0 -175 146 l0 99 50 0 50 0 0 -75z m820 -50 l0 -125 -50 0 -50 0 0 125 0
125 50 0 50 0 0 -125z m-1000 -260 c0 -38 20 -73 50 -85 21 -9 60 -9 155 -1
69 6 139 11 156 11 l29 0 0 -80 c0 -44 4 -80 9 -80 16 0 93 63 123 101 16 20
40 62 53 95 l24 59 70 3 71 3 0 -28 c0 -47 34 -91 77 -100 45 -9 255 -9 383 1
l90 8 0 -115 0 -114 -92 4 c-81 4 -97 2 -125 -16 -57 -36 -65 -57 -47 -130 9
-34 15 -64 13 -65 -10 -8 -174 -44 -181 -40 -4 3 -8 14 -8 25 0 35 -41 143
-67 177 -31 41 -69 57 -100 43 -13 -6 -52 -34 -89 -62 l-66 -52 -74 81 -75 81
-67 -5 c-123 -10 -149 -36 -118 -114 9 -22 16 -46 16 -54 0 -8 -36 -27 -87
-45 -91 -33 -102 -32 -103 14 -1 32 -36 101 -61 119 -38 26 -64 19 -131 -34
-90 -71 -162 -118 -191 -125 -22 -6 -33 4 -106 96 -44 57 -79 104 -77 106 1 2
29 8 62 14 140 26 244 109 311 248 l38 80 68 0 c65 1 67 0 67 -24z m-2050 -68
c0 -172 75 -247 245 -247 l45 0 0 -89 0 -89 -130 6 -130 5 -51 -57 c-52 -55
-81 -69 -96 -43 -4 8 -28 28 -52 45 -42 30 -48 32 -135 31 -50 0 -112 -4 -138
-8 l-48 -8 0 109 0 108 68 0 c37 0 85 5 106 11 76 21 132 111 143 226 l6 63
83 0 84 0 0 -63z m1300 -94 l0 -106 -171 7 c-177 7 -287 18 -352 38 -39 12
-84 66 -74 91 9 23 335 68 545 75 l52 2 0 -107z m-865 77 c214 -21 278 -51
232 -111 -33 -43 -174 -79 -312 -79 l-85 0 0 93 c0 52 3 97 7 100 8 9 38 8
158 -3z m2118 -403 c71 -108 76 -124 42 -137 -14 -5 -54 -9 -90 -9 -61 1 -67
-1 -147 -54 -46 -31 -141 -86 -211 -122 -71 -37 -126 -69 -123 -72 6 -6 808
17 818 23 4 3 -25 31 -65 63 -101 81 -133 133 -101 166 26 26 91 15 224 -37
168 -67 310 -97 448 -98 35 0 62 -4 60 -8 -26 -62 -143 -252 -155 -252 -30 0
-193 60 -273 100 l-80 40 0 -93 0 -93 -177 1 -178 0 0 -55 c1 -30 12 -103 25
-162 13 -60 21 -110 18 -113 -8 -8 -202 -44 -208 -39 -2 3 -7 40 -11 82 -7 84
-47 212 -76 244 -35 40 -70 47 -200 41 l-123 -6 0 91 0 90 -87 -34 c-92 -36
-223 -78 -228 -72 -8 10 -146 250 -151 263 -5 12 3 15 47 15 75 0 248 26 344
51 160 41 314 121 413 214 l57 54 67 1 66 0 55 -83z m-1213 -131 l0 -115 -52
5 c-236 21 -241 21 -305 2 -46 -14 -76 -32 -116 -68 -30 -28 -59 -50 -65 -50
-5 0 -32 18 -58 40 -27 22 -67 45 -89 51 -42 12 -286 5 -377 -10 l-48 -8 0
116 0 116 377 -3 c294 -2 411 1 528 13 82 9 151 18 154 21 2 2 15 4 28 4 23 0
23 -1 23 -114z m-1384 -34 c7 -4 30 -31 52 -60 22 -29 64 -73 93 -98 30 -25
78 -66 107 -91 l52 -44 -19 -27 c-11 -15 -31 -40 -45 -57 l-24 -30 -21 26
c-11 15 -35 32 -52 39 -30 13 -33 12 -55 -13 -47 -55 -53 -187 -27 -650 l6
-117 -122 0 c-121 0 -121 0 -116 23 11 48 25 269 25 393 0 184 -18 194 -144
78 -38 -35 -71 -64 -75 -64 -10 0 -146 139 -140 143 2 2 33 23 69 47 135 91
197 167 304 375 59 114 97 150 132 127z m870 -239 c26 -28 33 -49 60 -183 13
-64 18 -136 18 -295 1 -209 1 -210 -26 -265 -17 -35 -39 -62 -60 -74 -41 -25
-166 -33 -240 -16 -57 13 -157 59 -198 89 l-24 19 27 39 c15 21 40 53 55 71
l28 34 53 -36 c87 -59 141 -46 179 42 27 63 42 155 42 267 1 129 16 288 29
313 15 29 27 28 57 -5z m317 -82 c59 -74 126 -187 166 -279 35 -78 86 -231 96
-283 l6 -34 -87 -23 c-69 -17 -89 -19 -96 -10 -8 13 -16 36 -104 283 -25 72
-68 177 -95 235 -28 57 -46 106 -42 108 4 1 28 16 53 32 25 16 48 29 51 29 3
1 27 -26 52 -58z m-641 8 c26 -17 48 -35 48 -40 0 -24 -132 -283 -180 -354
-57 -85 -156 -195 -174 -195 -6 0 -44 33 -84 73 l-72 72 76 75 c93 91 202 220
274 323 30 43 56 77 58 77 3 0 27 -14 54 -31z m1482 -156 c53 -75 124 -199
145 -256 10 -27 9 -28 -89 -77 l-99 -49 -54 102 c-29 56 -75 135 -101 176 -26
40 -44 77 -39 81 16 16 158 99 170 99 7 1 37 -34 67 -76z m1104 36 c53 -23 98
-42 100 -43 1 -2 -23 -52 -54 -112 -66 -129 -76 -177 -44 -217 39 -49 74 -60
167 -53 l83 7 0 -99 0 -99 -632 0 c-567 1 -974 -10 -1100 -29 l-38 -6 0 118 0
117 173 -7 c94 -4 321 -7 502 -7 372 0 397 4 484 69 86 65 166 184 218 324 15
43 32 78 36 78 4 0 52 -19 105 -41z"/>
</g>
</svg>
